<svg xmlns="http://www.w3.org/2000/svg" width="960" height="520" viewBox="0 0 960 520" role="img" aria-labelledby="title desc">
<style>
text{font-family:-apple-system,BlinkMacSystemFont,"Segoe UI","PingFang SC","Microsoft YaHei",sans-serif;fill:#172033}
.axis{font-size:13px;fill:#667085}.value{font-size:12px;font-weight:650}.title{font-size:28px;font-weight:750}.subtitle{font-size:14px;fill:#667085}
</style>
<rect width="960" height="520" fill="#ffffff"/>
<title id="title">一般公共预算收入增速</title>
<desc id="desc">2016年至2025年，单位%。全国一般公共预算收入的名义同比变化。</desc>
<text class="title" x="82" y="48">一般公共预算收入增速</text>
<text class="subtitle" x="82" y="76">2016—2025 · 单位：% · 国家统计局年度统计公报</text>
<line x1="82" x2="908" y1="458.00" y2="458.00" stroke="#e7eaf0"/>
<text class="axis" text-anchor="end" x="70" y="463.00">-5.7</text>
<line x1="82" x2="908" y1="369.50" y2="369.50" stroke="#e7eaf0"/>
<text class="axis" text-anchor="end" x="70" y="374.50">-1.1</text>
<line x1="82" x2="908" y1="281.00" y2="281.00" stroke="#e7eaf0"/>
<text class="axis" text-anchor="end" x="70" y="286.00">3.4</text>
<line x1="82" x2="908" y1="192.50" y2="192.50" stroke="#e7eaf0"/>
<text class="axis" text-anchor="end" x="70" y="197.50">7.9</text>
<line x1="82" x2="908" y1="104.00" y2="104.00" stroke="#e7eaf0"/>
<text class="axis" text-anchor="end" x="70" y="109.00">12.5</text>
<line x1="82" x2="908" y1="347.48" y2="347.48" stroke="#98a2b3" stroke-width="1.5"/>
<path d="M 82.00 259.49 L 173.78 202.79 L 265.56 226.25 L 357.33 273.18 L 449.11 423.74 L 540.89 138.26 L 632.67 335.75 L 724.44 222.34 L 816.22 322.06 L 908.00 380.72" fill="none" stroke="#db2777" stroke-width="3.5" stroke-linecap="round" stroke-linejoin="round"/>
<text class="axis" text-anchor="middle" x="82.00" y="490">2016</text>
<circle cx="82.00" cy="259.49" r="5" fill="#fff" stroke="#db2777" stroke-width="3"/>
<text class="value" text-anchor="middle" x="82.00" y="246.49">4.5</text>
<text class="axis" text-anchor="middle" x="173.78" y="490">2017</text>
<circle cx="173.78" cy="202.79" r="5" fill="#fff" stroke="#db2777" stroke-width="3"/>
<text class="value" text-anchor="middle" x="173.78" y="189.79">7.4</text>
<text class="axis" text-anchor="middle" x="265.56" y="490">2018</text>
<circle cx="265.56" cy="226.25" r="5" fill="#fff" stroke="#db2777" stroke-width="3"/>
<text class="value" text-anchor="middle" x="265.56" y="213.25">6.2</text>
<text class="axis" text-anchor="middle" x="357.33" y="490">2019</text>
<circle cx="357.33" cy="273.18" r="5" fill="#fff" stroke="#db2777" stroke-width="3"/>
<text class="value" text-anchor="middle" x="357.33" y="260.18">3.8</text>
<text class="axis" text-anchor="middle" x="449.11" y="490">2020</text>
<circle cx="449.11" cy="423.74" r="5" fill="#fff" stroke="#db2777" stroke-width="3"/>
<text class="value" text-anchor="middle" x="449.11" y="410.74">-3.9</text>
<text class="axis" text-anchor="middle" x="540.89" y="490">2021</text>
<circle cx="540.89" cy="138.26" r="5" fill="#fff" stroke="#db2777" stroke-width="3"/>
<text class="value" text-anchor="middle" x="540.89" y="125.26">10.7</text>
<text class="axis" text-anchor="middle" x="632.67" y="490">2022</text>
<circle cx="632.67" cy="335.75" r="5" fill="#fff" stroke="#db2777" stroke-width="3"/>
<text class="value" text-anchor="middle" x="632.67" y="322.75">0.6</text>
<text class="axis" text-anchor="middle" x="724.44" y="490">2023</text>
<circle cx="724.44" cy="222.34" r="5" fill="#fff" stroke="#db2777" stroke-width="3"/>
<text class="value" text-anchor="middle" x="724.44" y="209.34">6.4</text>
<text class="axis" text-anchor="middle" x="816.22" y="490">2024</text>
<circle cx="816.22" cy="322.06" r="5" fill="#fff" stroke="#db2777" stroke-width="3"/>
<text class="value" text-anchor="middle" x="816.22" y="309.06">1.3</text>
<text class="axis" text-anchor="middle" x="908.00" y="490">2025</text>
<circle cx="908.00" cy="380.72" r="5" fill="#fff" stroke="#db2777" stroke-width="3"/>
<text class="value" text-anchor="middle" x="908.00" y="367.72">-1.7</text>
<rect x="82" y="104" width="826" height="354" fill="none" stroke="#d0d5dd"/>
</svg>