<svg xmlns="http://www.w3.org/2000/svg" width="960" height="520" viewBox="0 0 960 520" role="img" aria-labelledby="title desc">
<style>
text{font-family:-apple-system,BlinkMacSystemFont,"Segoe UI","PingFang SC","Microsoft YaHei",sans-serif;fill:#172033}
.axis{font-size:13px;fill:#667085}.value{font-size:12px;font-weight:650}.title{font-size:28px;font-weight:750}.subtitle{font-size:14px;fill:#667085}
</style>
<rect width="960" height="520" fill="#ffffff"/>
<title id="title">年末城镇调查失业率</title>
<desc id="desc">2016年至2025年，单位%。同口径序列从2018年开始；2016—2017年不以登记失业率替代。</desc>
<text class="title" x="82" y="48">年末城镇调查失业率</text>
<text class="subtitle" x="82" y="76">2016—2025 · 单位：% · 国家统计局年度统计公报</text>
<line x1="82" x2="908" y1="458.00" y2="458.00" stroke="#e7eaf0"/>
<text class="axis" text-anchor="end" x="70" y="463.00">0.0</text>
<line x1="82" x2="908" y1="369.50" y2="369.50" stroke="#e7eaf0"/>
<text class="axis" text-anchor="end" x="70" y="374.50">1.6</text>
<line x1="82" x2="908" y1="281.00" y2="281.00" stroke="#e7eaf0"/>
<text class="axis" text-anchor="end" x="70" y="286.00">3.2</text>
<line x1="82" x2="908" y1="192.50" y2="192.50" stroke="#e7eaf0"/>
<text class="axis" text-anchor="end" x="70" y="197.50">4.7</text>
<line x1="82" x2="908" y1="104.00" y2="104.00" stroke="#e7eaf0"/>
<text class="axis" text-anchor="end" x="70" y="109.00">6.3</text>
<path d="M 265.56 183.75 L 357.33 166.96 L 449.11 166.96 L 540.89 172.56 L 632.67 150.17 L 724.44 172.56 L 816.22 172.56 L 908.00 172.56" fill="none" stroke="#0f9f6e" stroke-width="3.5" stroke-linecap="round" stroke-linejoin="round"/>
<text class="axis" text-anchor="middle" x="82.00" y="490">2016</text>
<text class="axis" text-anchor="middle" x="173.78" y="490">2017</text>
<text class="axis" text-anchor="middle" x="265.56" y="490">2018</text>
<circle cx="265.56" cy="183.75" r="5" fill="#fff" stroke="#0f9f6e" stroke-width="3"/>
<text class="value" text-anchor="middle" x="265.56" y="170.75">4.9</text>
<text class="axis" text-anchor="middle" x="357.33" y="490">2019</text>
<circle cx="357.33" cy="166.96" r="5" fill="#fff" stroke="#0f9f6e" stroke-width="3"/>
<text class="value" text-anchor="middle" x="357.33" y="153.96">5.2</text>
<text class="axis" text-anchor="middle" x="449.11" y="490">2020</text>
<circle cx="449.11" cy="166.96" r="5" fill="#fff" stroke="#0f9f6e" stroke-width="3"/>
<text class="value" text-anchor="middle" x="449.11" y="153.96">5.2</text>
<text class="axis" text-anchor="middle" x="540.89" y="490">2021</text>
<circle cx="540.89" cy="172.56" r="5" fill="#fff" stroke="#0f9f6e" stroke-width="3"/>
<text class="value" text-anchor="middle" x="540.89" y="159.56">5.1</text>
<text class="axis" text-anchor="middle" x="632.67" y="490">2022</text>
<circle cx="632.67" cy="150.17" r="5" fill="#fff" stroke="#0f9f6e" stroke-width="3"/>
<text class="value" text-anchor="middle" x="632.67" y="137.17">5.5</text>
<text class="axis" text-anchor="middle" x="724.44" y="490">2023</text>
<circle cx="724.44" cy="172.56" r="5" fill="#fff" stroke="#0f9f6e" stroke-width="3"/>
<text class="value" text-anchor="middle" x="724.44" y="159.56">5.1</text>
<text class="axis" text-anchor="middle" x="816.22" y="490">2024</text>
<circle cx="816.22" cy="172.56" r="5" fill="#fff" stroke="#0f9f6e" stroke-width="3"/>
<text class="value" text-anchor="middle" x="816.22" y="159.56">5.1</text>
<text class="axis" text-anchor="middle" x="908.00" y="490">2025</text>
<circle cx="908.00" cy="172.56" r="5" fill="#fff" stroke="#0f9f6e" stroke-width="3"/>
<text class="value" text-anchor="middle" x="908.00" y="159.56">5.1</text>
<rect x="82" y="104" width="826" height="354" fill="none" stroke="#d0d5dd"/>
</svg>